# xmcd CD database file
#
# Track frame offsets:
#	150
#	22144
#	47191
#	71005
#	98467
#	119604
#	148519
#	169044
#	191686
#	203673
#	242392
#	271947
#
# Disc length: 3849 seconds
#
# Revision: 1
# Processed by: cddbd v1.5.2PL0 Copyright (c) Steve Scherf et al.
# Submitted via: CDex 1.70beta2
#
DISCID=a70f070c
DTITLE=Oliver Shanti - Well Balanced
DYEAR=1900
DGENRE=New Age
TTITLE0=Well Balanced
TTITLE1=Indian Ceremony
TTITLE2=Fight Without Fear
TTITLE3=You Can Hear Them Dancing
TTITLE4=Heya Heya
TTITLE5=Axtú Leman Sumix Sacred Mountain
TTITLE6=Four Circles Of Life
TTITLE7=We Could Have Been Brothers
TTITLE8=Chief White Bears Trance Dance
TTITLE9=Wilderness
TTITLE10=Amitabha
TTITLE11=Medicine Man's Other Room
EXTD=
EXTT0=
EXTT1=
EXTT2=
EXTT3=
EXTT4=
EXTT5=
EXTT6=
EXTT7=
EXTT8=
EXTT9=
EXTT10=
EXTT11=
PLAYORDER=
